<?xml version="1.0" encoding="UTF-8"?>
<svg xmlns="http://www.w3.org/2000/svg" xmlns:xlink="http://www.w3.org/1999/xlink" width="381.748" height="79.719" viewBox="0 0 381.748 79.719">
  <defs>
    <style>
      .cls-1 {
        fill: none;
      }

      .cls-2 {
        fill: #636568;
      }

      .cls-3 {
        clip-path: url(#clip-path);
      }

      .cls-4 {
        fill: #007db5;
      }

      .cls-5 {
        fill: #215477;
      }

      .cls-6 {
        fill: #e98123;
      }
    </style>
    <clipPath id="clip-path">
      <rect id="Rectangle_395" data-name="Rectangle 395" class="cls-1" width="381.748" height="79.719"></rect>
    </clipPath>
  </defs>
  <g id="Group_786" data-name="Group 786" transform="translate(0 0)">
    <path id="Path_1809" data-name="Path 1809" class="cls-2" d="M117,26.242l2.2-4.111h1.035l-2.746,5.034v3.19h-.967V27.211l-2.74-5.08h1.046Z" transform="translate(105.009 20.425)"></path>
    <g id="Group_785" data-name="Group 785" transform="translate(0 0)">
      <g id="Group_784" data-name="Group 784" class="cls-3">
        <path id="Path_1810" data-name="Path 1810" class="cls-2" d="M124.992,26.293a4.537,4.537,0,0,1-1,3.106,4.035,4.035,0,0,1-5.582.019,4.577,4.577,0,0,1-.986-3.136,4.512,4.512,0,0,1,.99-3.113,3.577,3.577,0,0,1,2.811-1.1A3.5,3.5,0,0,1,124,23.189a4.515,4.515,0,0,1,.994,3.1m-6.551,0a3.9,3.9,0,0,0,.711,2.534,2.9,2.9,0,0,0,4.132,0,3.965,3.965,0,0,0,.7-2.536,3.923,3.923,0,0,0-.694-2.517,2.492,2.492,0,0,0-2.058-.858,2.537,2.537,0,0,0-2.077.863,3.859,3.859,0,0,0-.711,2.511" transform="translate(108.376 20.364)"></path>
        <path id="Path_1811" data-name="Path 1811" class="cls-2" d="M128.62,22.131v5.321a2.9,2.9,0,0,1-.848,2.211,3.269,3.269,0,0,1-2.334.8,3.125,3.125,0,0,1-2.3-.81,3,3,0,0,1-.811-2.229v-5.3h.956V27.5a2.106,2.106,0,0,0,.563,1.581,2.261,2.261,0,0,0,1.654.552,2.185,2.185,0,0,0,1.6-.554,2.131,2.131,0,0,0,.563-1.59V22.131Z" transform="translate(112.897 20.425)"></path>
        <path id="Path_1812" data-name="Path 1812" class="cls-2" d="M127.729,26.934v3.419h-.956V22.131h2.256a3.553,3.553,0,0,1,2.236.577,2.1,2.1,0,0,1,.723,1.746,2.184,2.184,0,0,1-1.656,2.2l2.234,3.7h-1.131l-1.99-3.419Zm0-.823h1.311a2.256,2.256,0,0,0,1.484-.4A1.5,1.5,0,0,0,131,24.5a1.373,1.373,0,0,0-.481-1.175,2.6,2.6,0,0,0-1.546-.362h-1.242Z" transform="translate(117.002 20.425)"></path>
        <path id="Path_1813" data-name="Path 1813" class="cls-2" d="M134.825,30.354h-.956V22.979h-2.606v-.848h6.165v.848h-2.6Z" transform="translate(121.146 20.425)"></path>
        <path id="Path_1814" data-name="Path 1814" class="cls-2" d="M139.793,30.354h-4.584V22.131h4.584v.848h-3.629v2.65h3.411v.842h-3.411V29.5h3.629Z" transform="translate(124.787 20.425)"></path>
        <path id="Path_1815" data-name="Path 1815" class="cls-2" d="M142.28,22.924a2.683,2.683,0,0,0-2.14.9,3.635,3.635,0,0,0-.785,2.471,3.716,3.716,0,0,0,.758,2.5,2.694,2.694,0,0,0,2.156.881,7.4,7.4,0,0,0,1.965-.31V30.2a6.059,6.059,0,0,1-2.111.321,3.57,3.57,0,0,1-2.8-1.1,4.549,4.549,0,0,1-.988-3.134,4.943,4.943,0,0,1,.477-2.227,3.427,3.427,0,0,1,1.371-1.475,4.191,4.191,0,0,1,2.113-.515,5.113,5.113,0,0,1,2.261.471l-.4.823a4.349,4.349,0,0,0-1.869-.44" transform="translate(127.668 20.369)"></path>
        <path id="Path_1816" data-name="Path 1816" class="cls-2" d="M148.625,30.354h-.956V26.483h-4.332v3.871h-.956V22.131h.956v3.5h4.332v-3.5h.956Z" transform="translate(131.407 20.425)"></path>
        <path id="Path_1817" data-name="Path 1817" class="cls-2" d="M153.254,30.353h-1.09l-4.5-6.9h-.046q.092,1.214.09,2.227v4.675h-.883V22.131h1.081L152.395,29h.044c-.008-.1-.025-.427-.05-.977s-.037-.94-.029-1.177V22.131h.894Z" transform="translate(135.513 20.425)"></path>
        <path id="Path_1818" data-name="Path 1818" class="cls-2" d="M158.744,26.293a4.537,4.537,0,0,1-1,3.106,4.035,4.035,0,0,1-5.582.019,4.577,4.577,0,0,1-.986-3.136,4.512,4.512,0,0,1,.99-3.113,3.577,3.577,0,0,1,2.811-1.1,3.5,3.5,0,0,1,2.769,1.125,4.515,4.515,0,0,1,.994,3.1m-6.551,0a3.9,3.9,0,0,0,.712,2.534,2.9,2.9,0,0,0,4.132,0,3.965,3.965,0,0,0,.7-2.536,3.924,3.924,0,0,0-.694-2.517,2.492,2.492,0,0,0-2.058-.858,2.537,2.537,0,0,0-2.077.863,3.859,3.859,0,0,0-.712,2.511" transform="translate(139.526 20.364)"></path>
        <path id="Path_1819" data-name="Path 1819" class="cls-2" d="M156.121,30.354V22.131h.956v7.357h3.629v.865Z" transform="translate(144.088 20.425)"></path>
        <path id="Path_1820" data-name="Path 1820" class="cls-2" d="M166.526,26.293a4.537,4.537,0,0,1-1,3.106,4.035,4.035,0,0,1-5.582.019,4.577,4.577,0,0,1-.986-3.136,4.512,4.512,0,0,1,.99-3.113,3.577,3.577,0,0,1,2.811-1.1,3.5,3.5,0,0,1,2.769,1.125,4.515,4.515,0,0,1,.994,3.1m-6.551,0a3.9,3.9,0,0,0,.711,2.534,2.9,2.9,0,0,0,4.132,0,3.965,3.965,0,0,0,.7-2.536,3.923,3.923,0,0,0-.694-2.517,2.492,2.492,0,0,0-2.058-.858,2.537,2.537,0,0,0-2.077.863,3.859,3.859,0,0,0-.711,2.511" transform="translate(146.709 20.364)"></path>
        <path id="Path_1821" data-name="Path 1821" class="cls-2" d="M167.731,26.1h2.8v4a8.992,8.992,0,0,1-1.327.315,10.133,10.133,0,0,1-1.565.108,3.792,3.792,0,0,1-2.907-1.111,4.377,4.377,0,0,1-1.042-3.113,4.683,4.683,0,0,1,.517-2.246,3.473,3.473,0,0,1,1.483-1.475,4.783,4.783,0,0,1,2.265-.51,6.227,6.227,0,0,1,2.454.483l-.373.846a5.46,5.46,0,0,0-2.142-.473,3.073,3.073,0,0,0-2.346.894A3.466,3.466,0,0,0,164.7,26.3a3.543,3.543,0,0,0,.811,2.525,3.128,3.128,0,0,0,2.388.861,7.119,7.119,0,0,0,1.671-.2V26.957h-1.84Z" transform="translate(151.068 20.368)"></path>
        <path id="Path_1822" data-name="Path 1822" class="cls-2" d="M171.048,26.242l2.2-4.111h1.035l-2.746,5.034v3.19h-.967V27.211l-2.74-5.08h1.046Z" transform="translate(154.89 20.425)"></path>
        <path id="Path_1823" data-name="Path 1823" class="cls-2" d="M178.313,24.527a2.3,2.3,0,0,1-.854,1.921,3.849,3.849,0,0,1-2.436.673h-.969v3.232H173.1V22.131h2.131q3.086,0,3.084,2.4M174.054,26.3h.861a3.2,3.2,0,0,0,1.838-.41,1.508,1.508,0,0,0,.569-1.315,1.414,1.414,0,0,0-.535-1.215,2.788,2.788,0,0,0-1.665-.4h-1.069Z" transform="translate(159.756 20.425)"></path>
        <path id="Path_1824" data-name="Path 1824" class="cls-2" d="M182.212,30.371l-1.023-2.617h-3.3l-1.011,2.617h-.967l3.252-8.257h.806l3.232,8.257Zm-1.321-3.477-.956-2.548q-.187-.485-.383-1.186a10.942,10.942,0,0,1-.356,1.186l-.967,2.548Z" transform="translate(162.354 20.41)"></path>
        <path id="Path_1825" data-name="Path 1825" class="cls-2" d="M181.374,26.934v3.419h-.956V22.131h2.256a3.553,3.553,0,0,1,2.236.577,2.1,2.1,0,0,1,.723,1.746,2.184,2.184,0,0,1-1.656,2.2l2.234,3.7h-1.131l-1.99-3.419Zm0-.823h1.311a2.257,2.257,0,0,0,1.485-.4,1.5,1.5,0,0,0,.473-1.206,1.373,1.373,0,0,0-.481-1.175,2.6,2.6,0,0,0-1.546-.362h-1.242Z" transform="translate(166.512 20.425)"></path>
        <path id="Path_1826" data-name="Path 1826" class="cls-2" d="M187.249,30.354h-.956V22.979h-2.606v-.848h6.165v.848h-2.6Z" transform="translate(169.529 20.425)"></path>
        <path id="Path_1827" data-name="Path 1827" class="cls-2" d="M194.063,30.353h-1.09l-4.5-6.9h-.046q.092,1.214.09,2.227v4.675h-.883V22.131h1.081L193.2,29h.044c-.008-.1-.025-.427-.05-.977s-.037-.94-.029-1.177V22.131h.894Z" transform="translate(173.176 20.425)"></path>
        <path id="Path_1828" data-name="Path 1828" class="cls-2" d="M196.77,30.354h-4.584V22.131h4.584v.848h-3.629v2.65h3.411v.842h-3.411V29.5h3.629Z" transform="translate(177.372 20.425)"></path>
        <path id="Path_1829" data-name="Path 1829" class="cls-2" d="M196.468,26.934v3.419h-.956V22.131h2.256a3.554,3.554,0,0,1,2.236.577,2.1,2.1,0,0,1,.723,1.746,2.184,2.184,0,0,1-1.656,2.2l2.234,3.7h-1.131l-1.99-3.419Zm0-.823h1.311a2.256,2.256,0,0,0,1.485-.4,1.5,1.5,0,0,0,.473-1.206,1.373,1.373,0,0,0-.481-1.175,2.6,2.6,0,0,0-1.546-.362h-1.242Z" transform="translate(180.442 20.425)"></path>
        <path id="Path_1830" data-name="Path 1830" class="cls-2" d="M115.71,37.37h-.992l1.783-8.43h4.238l-.175.883h-3.275l-.633,3.073H119.7l-.185.883h-3.05Z" transform="translate(105.875 26.71)"></path>
        <path id="Path_1831" data-name="Path 1831" class="cls-2" d="M121.078,30a2.3,2.3,0,0,1,1.729.648,2.434,2.434,0,0,1,.635,1.784,5.156,5.156,0,0,1-.413,2.048,3.548,3.548,0,0,1-1.125,1.486,2.623,2.623,0,0,1-1.6.525,2.3,2.3,0,0,1-1.736-.652,2.457,2.457,0,0,1-.629-1.783,5.1,5.1,0,0,1,.421-2.059,3.481,3.481,0,0,1,1.136-1.483A2.642,2.642,0,0,1,121.078,30m1.361,2.3a1.584,1.584,0,0,0-.36-1.077,1.234,1.234,0,0,0-.977-.41,1.7,1.7,0,0,0-1.129.425,2.756,2.756,0,0,0-.773,1.185,4.987,4.987,0,0,0-.273,1.686,1.707,1.707,0,0,0,.365,1.169,1.341,1.341,0,0,0,1.052.412,1.587,1.587,0,0,0,1.079-.421,2.739,2.739,0,0,0,.746-1.2,5.409,5.409,0,0,0,.269-1.773" transform="translate(108.846 27.684)"></path>
        <path id="Path_1832" data-name="Path 1832" class="cls-2" d="M125.456,29.977a2.69,2.69,0,0,1,.69.081l-.206.865a2.535,2.535,0,0,0-.606-.075,1.6,1.6,0,0,0-.983.346,3.034,3.034,0,0,0-.8.961,4.882,4.882,0,0,0-.5,1.363l-.617,2.894h-.969l1.35-6.319h.8l-.125,1.169h.058a5.661,5.661,0,0,1,.685-.786,2.2,2.2,0,0,1,.567-.369,1.612,1.612,0,0,1,.661-.131" transform="translate(112.098 27.667)"></path>
        <path id="Path_1833" data-name="Path 1833" class="cls-2" d="M129.629,28.94q2.489,0,2.492,1.938a1.973,1.973,0,0,1-.5,1.371,2.41,2.41,0,0,1-1.411.727v.058a1.9,1.9,0,0,1,1.017.636,1.712,1.712,0,0,1,.356,1.086,2.318,2.318,0,0,1-.879,1.919,3.663,3.663,0,0,1-2.344.694h-2.671l1.783-8.43Zm-2.784,7.594h1.533a2.46,2.46,0,0,0,1.6-.463,1.611,1.611,0,0,0,.558-1.313,1.256,1.256,0,0,0-.427-1.023,1.9,1.9,0,0,0-1.238-.354h-1.361Zm.848-3.984h1.429a2.263,2.263,0,0,0,1.436-.421,1.375,1.375,0,0,0,.537-1.146,1.06,1.06,0,0,0-.385-.9,1.955,1.955,0,0,0-1.208-.3h-1.215Z" transform="translate(115.997 26.71)"></path>
        <path id="Path_1834" data-name="Path 1834" class="cls-2" d="M131.647,30.038l-.865,4.007a4.309,4.309,0,0,0-.1.8.74.74,0,0,0,.848.825,1.717,1.717,0,0,0,1-.348,3.036,3.036,0,0,0,.865-.992,5.29,5.29,0,0,0,.571-1.556l.577-2.738h.958l-1.333,6.319h-.8l.125-1.169h-.069a3.726,3.726,0,0,1-1.079,1,2.161,2.161,0,0,1-1.06.283,1.621,1.621,0,0,1-1.16-.4,1.511,1.511,0,0,1-.421-1.144,5.311,5.311,0,0,1,.129-.994l.84-3.9Z" transform="translate(119.7 27.723)"></path>
        <path id="Path_1835" data-name="Path 1835" class="cls-2" d="M137.339,34.62a1.682,1.682,0,0,1-.638,1.4,2.828,2.828,0,0,1-1.8.5,3.824,3.824,0,0,1-1.758-.4V35.22a3.577,3.577,0,0,0,.869.375,3.207,3.207,0,0,0,.867.133,1.765,1.765,0,0,0,1.094-.288.9.9,0,0,0,.369-.738.8.8,0,0,0-.2-.554,4.106,4.106,0,0,0-.869-.615,3.49,3.49,0,0,1-1.061-.825,1.526,1.526,0,0,1-.311-.958,1.584,1.584,0,0,1,.583-1.283,2.307,2.307,0,0,1,1.533-.488,4.443,4.443,0,0,1,1.9.429l-.312.788-.323-.142a3.206,3.206,0,0,0-1.269-.248,1.29,1.29,0,0,0-.842.25.8.8,0,0,0-.3.646.81.81,0,0,0,.2.556,3.553,3.553,0,0,0,.844.592,4.917,4.917,0,0,1,.886.6,1.716,1.716,0,0,1,.4.533,1.5,1.5,0,0,1,.133.642" transform="translate(122.884 27.668)"></path>
        <path id="Path_1836" data-name="Path 1836" class="cls-2" d="M137.046,37.484h-.969l1.35-6.319h.967Zm.652-7.934a.759.759,0,0,1,.185-.527.616.616,0,0,1,.479-.206.453.453,0,0,1,.506.521.78.78,0,0,1-.192.535.583.583,0,0,1-.448.219.5.5,0,0,1-.529-.542" transform="translate(125.588 26.596)"></path>
        <path id="Path_1837" data-name="Path 1837" class="cls-2" d="M141.69,36.413l.854-3.99a5.259,5.259,0,0,0,.115-.831.815.815,0,0,0-.206-.583.855.855,0,0,0-.652-.219,1.711,1.711,0,0,0-1,.348,3.039,3.039,0,0,0-.86.986,5.158,5.158,0,0,0-.561,1.55l-.583,2.738h-.969l1.35-6.319h.8l-.125,1.169h.058a3.846,3.846,0,0,1,1.069-.994,2.149,2.149,0,0,1,1.071-.292,1.617,1.617,0,0,1,1.154.4,1.461,1.461,0,0,1,.425,1.121,4.732,4.732,0,0,1-.135,1.038l-.823,3.875Z" transform="translate(127.204 27.667)"></path>
        <path id="Path_1838" data-name="Path 1838" class="cls-2" d="M143.959,36.528a2.208,2.208,0,0,1-1.669-.629,2.4,2.4,0,0,1-.606-1.742,5.185,5.185,0,0,1,.431-2.077,3.833,3.833,0,0,1,1.138-1.55,2.49,2.49,0,0,1,1.563-.554,1.981,1.981,0,0,1,1.325.387,1.332,1.332,0,0,1,.444,1.067,1.828,1.828,0,0,1-.958,1.631,5.262,5.262,0,0,1-2.738.588h-.19l-.021.463a1.775,1.775,0,0,0,.354,1.179,1.356,1.356,0,0,0,1.1.423,2.846,2.846,0,0,0,.746-.1,6,6,0,0,0,.956-.379v.84a5.346,5.346,0,0,1-.958.356,4,4,0,0,1-.915.1m.8-5.725a1.551,1.551,0,0,0-1.117.54,3.556,3.556,0,0,0-.8,1.5h.069a4.71,4.71,0,0,0,2.015-.34,1.078,1.078,0,0,0,.7-1,.679.679,0,0,0-.21-.508.927.927,0,0,0-.66-.2" transform="translate(130.763 27.667)"></path>
        <path id="Path_1839" data-name="Path 1839" class="cls-2" d="M148.856,34.62a1.682,1.682,0,0,1-.638,1.4,2.828,2.828,0,0,1-1.8.5,3.824,3.824,0,0,1-1.758-.4V35.22a3.577,3.577,0,0,0,.869.375,3.207,3.207,0,0,0,.867.133,1.765,1.765,0,0,0,1.094-.288.9.9,0,0,0,.369-.738.8.8,0,0,0-.2-.554,4.107,4.107,0,0,0-.869-.615,3.49,3.49,0,0,1-1.061-.825,1.526,1.526,0,0,1-.312-.958A1.584,1.584,0,0,1,146,30.466a2.307,2.307,0,0,1,1.533-.488,4.443,4.443,0,0,1,1.9.429l-.312.788-.323-.142a3.206,3.206,0,0,0-1.269-.248,1.29,1.29,0,0,0-.842.25.8.8,0,0,0-.3.646.81.81,0,0,0,.2.556,3.553,3.553,0,0,0,.844.592,4.915,4.915,0,0,1,.886.6,1.716,1.716,0,0,1,.4.533,1.5,1.5,0,0,1,.133.642" transform="translate(133.514 27.668)"></path>
        <path id="Path_1840" data-name="Path 1840" class="cls-2" d="M151.762,34.62a1.682,1.682,0,0,1-.638,1.4,2.828,2.828,0,0,1-1.8.5,3.824,3.824,0,0,1-1.758-.4V35.22a3.577,3.577,0,0,0,.869.375,3.207,3.207,0,0,0,.867.133,1.765,1.765,0,0,0,1.094-.288.9.9,0,0,0,.369-.738.8.8,0,0,0-.2-.554,4.105,4.105,0,0,0-.869-.615,3.49,3.49,0,0,1-1.061-.825,1.526,1.526,0,0,1-.312-.958,1.584,1.584,0,0,1,.583-1.283,2.307,2.307,0,0,1,1.533-.488,4.442,4.442,0,0,1,1.9.429l-.311.788-.323-.142a3.206,3.206,0,0,0-1.269-.248,1.29,1.29,0,0,0-.842.25.8.8,0,0,0-.3.646.81.81,0,0,0,.2.556,3.553,3.553,0,0,0,.844.592,4.917,4.917,0,0,1,.887.6,1.717,1.717,0,0,1,.4.533,1.5,1.5,0,0,1,.133.642" transform="translate(136.196 27.668)"></path>
        <path id="Path_1841" data-name="Path 1841" class="cls-2" d="M157.043,34.983a2.321,2.321,0,0,1-.81,1.888,3.473,3.473,0,0,1-2.279.671,6.147,6.147,0,0,1-1.077-.083,3.382,3.382,0,0,1-.873-.279V36.2a4.192,4.192,0,0,0,1.959.485,2.311,2.311,0,0,0,1.483-.437,1.445,1.445,0,0,0,.546-1.2,1.16,1.16,0,0,0-.3-.792,4.593,4.593,0,0,0-1.127-.811,3.577,3.577,0,0,1-1.208-.981,1.989,1.989,0,0,1-.338-1.158,2.243,2.243,0,0,1,.761-1.756,2.9,2.9,0,0,1,2-.677,4.862,4.862,0,0,1,1.061.11,4.7,4.7,0,0,1,1.042.375l-.381.863a3.54,3.54,0,0,0-.854-.344,3.375,3.375,0,0,0-.869-.129,1.853,1.853,0,0,0-1.244.4,1.352,1.352,0,0,0-.469,1.086,1.3,1.3,0,0,0,.1.533,1.272,1.272,0,0,0,.312.419,5.249,5.249,0,0,0,.819.548,6.942,6.942,0,0,1,1.144.794,2.037,2.037,0,0,1,.45.638,2,2,0,0,1,.152.81" transform="translate(140.289 26.652)"></path>
        <path id="Path_1842" data-name="Path 1842" class="cls-2" d="M157.449,30.038l-.865,4.007a4.307,4.307,0,0,0-.1.8.74.74,0,0,0,.848.825,1.717,1.717,0,0,0,1-.348,3.036,3.036,0,0,0,.865-.992,5.288,5.288,0,0,0,.571-1.556l.577-2.738h.958l-1.333,6.319h-.8l.125-1.169h-.069a3.725,3.725,0,0,1-1.079,1,2.161,2.161,0,0,1-1.06.283,1.621,1.621,0,0,1-1.16-.4,1.511,1.511,0,0,1-.421-1.144,5.312,5.312,0,0,1,.129-.994l.84-3.9Z" transform="translate(143.513 27.723)"></path>
        <path id="Path_1843" data-name="Path 1843" class="cls-2" d="M161.537,36.527a2.144,2.144,0,0,1-2.354-2.357,5.271,5.271,0,0,1,.427-2.127,3.612,3.612,0,0,1,1.179-1.519,2.806,2.806,0,0,1,1.692-.546,4.26,4.26,0,0,1,1.546.294l-.271.813a3.264,3.264,0,0,0-1.263-.294,1.815,1.815,0,0,0-1.179.44,2.923,2.923,0,0,0-.836,1.229,4.761,4.761,0,0,0-.3,1.709,1.614,1.614,0,0,0,.383,1.148,1.382,1.382,0,0,0,1.06.41,2.6,2.6,0,0,0,.783-.117,7.183,7.183,0,0,0,.727-.269v.825a3.455,3.455,0,0,1-1.59.362" transform="translate(146.913 27.668)"></path>
        <path id="Path_1844" data-name="Path 1844" class="cls-2" d="M164.43,36.527a2.144,2.144,0,0,1-2.354-2.357,5.272,5.272,0,0,1,.427-2.127,3.612,3.612,0,0,1,1.179-1.519,2.806,2.806,0,0,1,1.692-.546,4.26,4.26,0,0,1,1.546.294l-.271.813a3.264,3.264,0,0,0-1.263-.294,1.815,1.815,0,0,0-1.179.44,2.923,2.923,0,0,0-.837,1.229,4.761,4.761,0,0,0-.3,1.709,1.614,1.614,0,0,0,.383,1.148,1.382,1.382,0,0,0,1.06.41,2.6,2.6,0,0,0,.783-.117,7.174,7.174,0,0,0,.727-.269v.825a3.455,3.455,0,0,1-1.59.362" transform="translate(149.584 27.668)"></path>
        <path id="Path_1845" data-name="Path 1845" class="cls-2" d="M167.243,36.528a2.206,2.206,0,0,1-1.667-.629,2.4,2.4,0,0,1-.606-1.742,5.185,5.185,0,0,1,.431-2.077,3.833,3.833,0,0,1,1.138-1.55,2.489,2.489,0,0,1,1.561-.554,1.983,1.983,0,0,1,1.327.387,1.332,1.332,0,0,1,.444,1.067,1.828,1.828,0,0,1-.958,1.631,5.262,5.262,0,0,1-2.738.588h-.19l-.023.463a1.776,1.776,0,0,0,.356,1.179,1.356,1.356,0,0,0,1.1.423,2.847,2.847,0,0,0,.746-.1,6,6,0,0,0,.956-.379v.84a5.345,5.345,0,0,1-.958.356,4,4,0,0,1-.917.1m.8-5.725a1.55,1.55,0,0,0-1.115.54,3.556,3.556,0,0,0-.8,1.5h.069a4.71,4.71,0,0,0,2.015-.34,1.078,1.078,0,0,0,.7-1A.679.679,0,0,0,168.7,31a.929.929,0,0,0-.661-.2" transform="translate(152.254 27.667)"></path>
        <path id="Path_1846" data-name="Path 1846" class="cls-2" d="M172.141,34.62a1.682,1.682,0,0,1-.638,1.4,2.828,2.828,0,0,1-1.8.5,3.824,3.824,0,0,1-1.758-.4V35.22a3.577,3.577,0,0,0,.869.375,3.207,3.207,0,0,0,.867.133,1.765,1.765,0,0,0,1.094-.288.9.9,0,0,0,.369-.738.8.8,0,0,0-.2-.554,4.106,4.106,0,0,0-.869-.615,3.49,3.49,0,0,1-1.061-.825,1.526,1.526,0,0,1-.311-.958,1.584,1.584,0,0,1,.583-1.283,2.307,2.307,0,0,1,1.533-.488,4.443,4.443,0,0,1,1.9.429l-.312.788-.323-.142a3.206,3.206,0,0,0-1.269-.248,1.29,1.29,0,0,0-.842.25.8.8,0,0,0-.3.646.81.81,0,0,0,.2.556,3.553,3.553,0,0,0,.844.592,4.917,4.917,0,0,1,.886.6,1.716,1.716,0,0,1,.4.533,1.5,1.5,0,0,1,.133.642" transform="translate(155.004 27.668)"></path>
        <path id="Path_1847" data-name="Path 1847" class="cls-2" d="M175.049,34.62a1.682,1.682,0,0,1-.638,1.4,2.835,2.835,0,0,1-1.8.5,3.838,3.838,0,0,1-1.759-.4V35.22a3.577,3.577,0,0,0,.869.375,3.218,3.218,0,0,0,.867.133,1.765,1.765,0,0,0,1.094-.288.894.894,0,0,0,.371-.738.808.808,0,0,0-.2-.554,4.189,4.189,0,0,0-.871-.615,3.478,3.478,0,0,1-1.06-.825,1.526,1.526,0,0,1-.312-.958,1.582,1.582,0,0,1,.581-1.283,2.308,2.308,0,0,1,1.533-.488,4.445,4.445,0,0,1,1.906.429l-.313.788L175,31.053a3.193,3.193,0,0,0-1.269-.248,1.284,1.284,0,0,0-.84.25.794.794,0,0,0-.3.646.81.81,0,0,0,.2.556,3.553,3.553,0,0,0,.844.592,4.887,4.887,0,0,1,.885.6,1.723,1.723,0,0,1,.4.533,1.534,1.534,0,0,1,.133.642" transform="translate(157.686 27.668)"></path>
        <rect id="Rectangle_394" data-name="Rectangle 394" class="cls-2" width="0.713" height="59.205" transform="translate(208.466 20.514)"></rect>
        <path id="Path_1848" data-name="Path 1848" class="cls-4" d="M43.586,17.432l3.49,2.515,2.3-2.832-3.1-3Z" transform="translate(40.226 13.031)"></path>
        <path id="Path_1849" data-name="Path 1849" class="cls-4" d="M39.8,14.772l4.169,3.006,2.752-3.386-3.7-3.58Z" transform="translate(36.731 9.978)"></path>
        <path id="Path_1850" data-name="Path 1850" class="cls-5" d="M35.847,11.97l4.69,3.382,3.1-3.809L39.466,7.515Z" transform="translate(33.084 6.935)"></path>
        <path id="Path_1851" data-name="Path 1851" class="cls-4" d="M47.5,12.682l2.307,3.661,3.194-1.725L51.24,10.665Z" transform="translate(43.843 9.843)"></path>
        <path id="Path_1852" data-name="Path 1852" class="cls-4" d="M49.6,16.094l1.875,2.975,2.594-1.4L52.63,14.454Z" transform="translate(45.773 13.34)"></path>
        <path id="Path_1853" data-name="Path 1853" class="cls-4" d="M45.088,8.676l2.759,4.377,3.815-2.061L49.553,6.262Z" transform="translate(41.613 5.78)"></path>
        <path id="Path_1854" data-name="Path 1854" class="cls-5" d="M42.545,4.5l3.1,4.925L49.941,7.1l0-.008L47.568,1.785Z" transform="translate(39.266 1.647)"></path>
        <path id="Path_1855" data-name="Path 1855" class="cls-4" d="M53.29,14.227l3.63-.06L57.1,9.855v0l-4.246.067Z" transform="translate(48.778 9.092)"></path>
        <path id="Path_1856" data-name="Path 1856" class="cls-4" d="M53.482,17.564l2.95-.048.144-3.509-3.45.056Z" transform="translate(49.032 12.927)"></path>
        <path id="Path_1857" data-name="Path 1857" class="cls-4" d="M53.077,10.241l4.34-.069.213-5.161-5.077.081Z" transform="translate(48.503 4.624)"></path>
        <path id="Path_1858" data-name="Path 1858" class="cls-5" d="M52.789,5.886l4.88-.077L57.909,0,52.2.092Z" transform="translate(48.175 0)"></path>
        <path id="Path_1859" data-name="Path 1859" class="cls-4" d="M58.161,14.856l3.19,1.8,2.281-3.625L59.9,10.925Z" transform="translate(53.678 10.083)"></path>
        <path id="Path_1860" data-name="Path 1860" class="cls-4" d="M56.526,17.827l2.592,1.463,1.856-2.944-3.032-1.711Z" transform="translate(52.169 13.508)"></path>
        <path id="Path_1861" data-name="Path 1861" class="cls-4" d="M60.106,11.315l3.813,2.152,2.727-4.332L62.187,6.617Z" transform="translate(55.473 6.107)"></path>
        <path id="Path_1862" data-name="Path 1862" class="cls-5" d="M62.126,7.415l4.29,2.421,3.069-4.873L64.466,2.133Z" transform="translate(57.337 1.969)"></path>
        <path id="Path_1863" data-name="Path 1863" class="cls-4" d="M61.878,17.207l2.009,3.1,3.692-2.1-2.348-3.623Z" transform="translate(57.109 13.458)"></path>
        <path id="Path_1864" data-name="Path 1864" class="cls-4" d="M58.9,19.116l1.631,2.519,3-1.708-1.909-2.944Z" transform="translate(54.357 15.675)"></path>
        <path id="Path_1865" data-name="Path 1865" class="cls-4" d="M65.4,14.942l2.4,3.705,4.415-2.509L69.414,11.8Z" transform="translate(60.364 10.894)"></path>
        <path id="Path_1866" data-name="Path 1866" class="cls-5" d="M69.122,12.418l2.7,4.169,4.965-2.823L73.629,8.886Z" transform="translate(63.794 8.201)"></path>
        <path id="Path_1867" data-name="Path 1867" class="cls-4" d="M20.518,26.324H13.151V46.3H7.232V26.324H0V21.755H20.518Z" transform="translate(0 20.078)"></path>
        <path id="Path_1868" data-name="Path 1868" class="cls-4" d="M17.846,46.484h-5.7V28.243h5.7ZM11.81,24.322a2.672,2.672,0,0,1,.227-1.111,2.561,2.561,0,0,1,.65-.879,3.055,3.055,0,0,1,.994-.573,4.168,4.168,0,0,1,2.563,0,3.035,3.035,0,0,1,.994.573,2.561,2.561,0,0,1,.65.879,2.84,2.84,0,0,1,0,2.225,2.572,2.572,0,0,1-.65.877,3,3,0,0,1-.994.573,4.169,4.169,0,0,1-2.563,0,3.021,3.021,0,0,1-.994-.573,2.572,2.572,0,0,1-.65-.877,2.681,2.681,0,0,1-.227-1.113" transform="translate(10.9 19.896)"></path>
        <path id="Path_1869" data-name="Path 1869" class="cls-4" d="M22.117,25.2l.185,2.142a6.284,6.284,0,0,1,5.211-2.479,5.883,5.883,0,0,1,2.815.648,4.2,4.2,0,0,1,1.854,2.1,6.228,6.228,0,0,1,2.209-2.023,6.478,6.478,0,0,1,3.152-.725,6.98,6.98,0,0,1,2.292.362,4.31,4.31,0,0,1,1.806,1.2,5.728,5.728,0,0,1,1.179,2.19,11.441,11.441,0,0,1,.421,3.348v11.48h-5.7V31.957a5.105,5.105,0,0,0-.152-1.375,1.965,1.965,0,0,0-.429-.825,1.435,1.435,0,0,0-.692-.406,3.575,3.575,0,0,0-.919-.11,2.743,2.743,0,0,0-1.5.4,2.973,2.973,0,0,0-1.011,1.1,2.082,2.082,0,0,1,.017.262V43.436h-5.7V31.989a5.661,5.661,0,0,0-.142-1.4,2,2,0,0,0-.421-.844,1.361,1.361,0,0,0-.692-.4,3.94,3.94,0,0,0-.935-.1,2.7,2.7,0,0,0-1.459.4,3.083,3.083,0,0,0-1.036,1.1v12.7H16.789V25.2Z" transform="translate(15.495 22.943)"></path>
        <path id="Path_1870" data-name="Path 1870" class="cls-4" d="M43.45,37.626a15.328,15.328,0,0,0-.11-1.881,5.146,5.146,0,0,0-.423-1.55,2.581,2.581,0,0,0-.867-1.054,2.49,2.49,0,0,0-1.45-.388,3.249,3.249,0,0,0-1.661.381,2.518,2.518,0,0,0-1,1.086V41.47a2.478,2.478,0,0,0,1,1.079,3.387,3.387,0,0,0,1.694.371,2.68,2.68,0,0,0,1.484-.363,2.309,2.309,0,0,0,.852-1.011,4.993,4.993,0,0,0,.387-1.559,19.929,19.929,0,0,0,.094-2.006Zm5.7.354a15.833,15.833,0,0,1-.421,3.784,8.431,8.431,0,0,1-1.3,2.934A6.117,6.117,0,0,1,45.219,46.6a6.845,6.845,0,0,1-3.152.683,5.4,5.4,0,0,1-2.588-.583,5.9,5.9,0,0,1-1.9-1.627l-.237,1.871H32.255V21.054h5.682v9.12a5.393,5.393,0,0,1,1.769-1.333,5.465,5.465,0,0,1,2.327-.471,6.847,6.847,0,0,1,3.179.69,6.106,6.106,0,0,1,2.217,1.931,8.627,8.627,0,0,1,1.3,2.934,15.308,15.308,0,0,1,.421,3.7Z" transform="translate(29.769 19.431)"></path>
        <path id="Path_1871" data-name="Path 1871" class="cls-4" d="M53.253,41.3a6.074,6.074,0,0,1-2.073,1.7,6.191,6.191,0,0,1-2.8.606,7.68,7.68,0,0,1-2.469-.379,4.808,4.808,0,0,1-1.923-1.2,5.536,5.536,0,0,1-1.246-2.106,9.5,9.5,0,0,1-.448-3.094v-11.8h5.682V36.869a2.425,2.425,0,0,0,.581,1.788,2.324,2.324,0,0,0,1.694.573,3.545,3.545,0,0,0,1.729-.371,2.762,2.762,0,0,0,1.054-1.029v-12.8h5.715V43.276H53.422Z" transform="translate(39.034 23.104)"></path>
        <path id="Path_1872" data-name="Path 1872" class="cls-4" d="M59.774,40.066l-1.6,1.6v5.192H52.49V21.15h5.682V34.7l.573-.76,4.282-5.326h6.811l-6.39,7.5,6.811,10.74H63.753Z" transform="translate(48.444 19.52)"></path>
        <path id="Path_1873" data-name="Path 1873" class="cls-6" d="M85.46,25.613H74.278l.073,21.344H68.434l-.073-21.344H57.908V21.044H85.46Z" transform="translate(53.445 19.422)"></path>
        <path id="Path_1874" data-name="Path 1874" class="cls-6" d="M76.984,29.24a2.857,2.857,0,0,0-1.25.254,2.438,2.438,0,0,0-.867.692,3.494,3.494,0,0,0-.55,1.044,7.574,7.574,0,0,0-.3,1.315h5.73v-.438a2.813,2.813,0,0,0-.69-2.115,2.749,2.749,0,0,0-2.071-.752m.64,14.533a10.551,10.551,0,0,1-3.979-.708,8.608,8.608,0,0,1-2.954-1.921,8.29,8.29,0,0,1-1.827-2.817,9.154,9.154,0,0,1-.635-3.405v-.64a12.234,12.234,0,0,1,.548-3.717,8.3,8.3,0,0,1,1.654-2.992,7.693,7.693,0,0,1,2.748-1.99,9.44,9.44,0,0,1,3.834-.725,9.228,9.228,0,0,1,3.482.623,7.143,7.143,0,0,1,2.613,1.788,7.841,7.841,0,0,1,1.634,2.815,11.417,11.417,0,0,1,.565,3.709V36.1h-11.3a4.108,4.108,0,0,0,1.331,2.411,3.972,3.972,0,0,0,2.663.877,6.223,6.223,0,0,0,2.286-.438,4.578,4.578,0,0,0,1.929-1.45l2.6,3.069A6.628,6.628,0,0,1,83.7,41.751a7.733,7.733,0,0,1-1.594,1.019,10,10,0,0,1-2.04.725,10.134,10.134,0,0,1-2.442.279" transform="translate(62.972 22.942)"></path>
        <path id="Path_1875" data-name="Path 1875" class="cls-6" d="M86.716,39.391a2.522,2.522,0,0,0,1.856-.65,2.384,2.384,0,0,0,.64-1.811h5.326a6.594,6.594,0,0,1-.581,2.807A6.466,6.466,0,0,1,92.348,41.9a7.234,7.234,0,0,1-2.446,1.39,9.265,9.265,0,0,1-3.052.488,9.169,9.169,0,0,1-3.742-.708,7.462,7.462,0,0,1-2.673-1.946,8.264,8.264,0,0,1-1.609-2.934,12.023,12.023,0,0,1-.538-3.667v-.387a12.121,12.121,0,0,1,.538-3.677,8.341,8.341,0,0,1,1.6-2.942,7.38,7.38,0,0,1,2.656-1.946,9.066,9.066,0,0,1,3.717-.71,9.611,9.611,0,0,1,3.144.49,6.837,6.837,0,0,1,2.444,1.423,6.375,6.375,0,0,1,1.584,2.3,8.057,8.057,0,0,1,.565,3.1H89.212a4.424,4.424,0,0,0-.144-1.146,2.48,2.48,0,0,0-.463-.935,2.252,2.252,0,0,0-.8-.625,2.666,2.666,0,0,0-1.138-.227,2.3,2.3,0,0,0-1.408.4,2.558,2.558,0,0,0-.819,1.061,5.36,5.36,0,0,0-.379,1.559,18.263,18.263,0,0,0-.092,1.873v.387a18.286,18.286,0,0,0,.092,1.9,5.337,5.337,0,0,0,.379,1.552,2.38,2.38,0,0,0,.835,1.044,2.479,2.479,0,0,0,1.442.381" transform="translate(72.254 22.942)"></path>
        <path id="Path_1876" data-name="Path 1876" class="cls-6" d="M93.605,30.663a6.282,6.282,0,0,1,2.031-1.686,5.626,5.626,0,0,1,2.623-.606,7.6,7.6,0,0,1,2.486.387,4.769,4.769,0,0,1,1.931,1.248,5.851,5.851,0,0,1,1.256,2.242,11.07,11.07,0,0,1,.446,3.373V46.948h-5.7V35.586a4.568,4.568,0,0,0-.177-1.375,2.084,2.084,0,0,0-.515-.875,1.8,1.8,0,0,0-.817-.456,4.261,4.261,0,0,0-1.088-.127,3.5,3.5,0,0,0-1.542.294,2.311,2.311,0,0,0-.935.819V46.948H87.923V21.054h5.682Z" transform="translate(81.146 19.431)"></path>
        <path id="Path_1877" data-name="Path 1877" class="cls-4" d="M46.851,19.671l2.832,2.042,1.869-2.3-2.515-2.432Z" transform="translate(43.24 15.669)"></path>
        <path id="Path_1878" data-name="Path 1878" class="cls-2" d="M98.545,26.606v-.8h.523c.281,0,.55.075.55.4,0,.392-.344.4-.7.4Zm0,.242h.481l.652,1.027h.333l-.688-1.027A.623.623,0,0,0,99.9,26.2c0-.415-.231-.64-.754-.64h-.888v2.313h.285ZM98.988,25A1.718,1.718,0,1,1,97.3,26.72,1.676,1.676,0,0,1,98.988,25m0-.285a2,2,0,1,0,2,2,1.976,1.976,0,0,0-2-2" transform="translate(89.509 22.811)"></path>
      </g>
    </g>
  </g>
</svg>
